<svg height="512" viewBox="0 0 58 58" width="512" xmlns="http://www.w3.org/2000/svg"><g id="Page-1" fill="none" fill-rule="evenodd"><g id="074---Book"><path id="Path" d="m57.7 53.07c-.5856945.9308126-1.8095474 1.2200869-2.75.65-6.5166827-3.5186363-14.3363814-3.65288-20.97-.36-.1817461 2.616451-2.3572443 4.6460752-4.98 4.6460752s-4.7982539-2.0296242-4.98-4.6460752c-6.6336186-3.29288-14.45331733-3.1586363-20.97.36-.94045256.5700869-2.16430552.2808126-2.75-.65-.47856736-.765755-.3755564-1.7587807.25-2.41.11965301-.122725.25400295-.230205.4-.32.56-.34 13.52-9.71 28.05-.34 14.53-9.37 27.5 0 28.05.34.1471211.096339.2844444.2068675.41.33.6176256.6518082.7163244 1.6387968.24 2.4z" fill="#e64c3c"/><path id="Path" d="m45.14 33.93c-.6919535-.9572951-1.657708-1.6824826-2.77-2.08-3.36-1.18-8.21-1.79-13.37 2.71-5.16-4.5-10.01-3.89-13.37-2.71-1.112292.3975174-2.0780465 1.1227049-2.77 2.08l-12.32 16.71.01.02c.11965301-.122725.25400295-.230205.4-.32 8.85155245-4.8615033 19.6780011-4.3674622 28.05 1.28 8.3717005-5.6483641 19.1986626-6.1424286 28.05-1.28.1471211.096339.2844444.2068675.41.33l.01-.01z" fill="#f5efca"/><path id="Path" d="m57.47 50.66-.01.01c-.1255556-.1231325-.2628789-.233661-.41-.33-8.8513374-4.8624286-19.6782995-4.3683641-28.05 1.28v-17.06c5.16-4.5 10.01-3.89 13.37-2.71 1.112292.3975174 2.0780465 1.1227049 2.77 2.08z" fill="#f9eab0"/><circle id="Oval" cx="29" cy="14" fill="#4fba6f" r="14"/><path id="Path" d="m24 22c-.2651948-.0000566-.5195073-.1054506-.707-.293l-4-4c-.3389508-.397481-.314856-.9888806.0553061-1.3574708.3701621-.3685903.9616589-.3901683 1.3576939-.0495292l3.345 3.345 13.3-11.4c.4212323-.33407529 1.0312217-.27530784 1.3809275.13304098.3497059.40834881.3139582 1.02011905-.0809275 1.38495902l-14 12c-.1818281.1540463-.4126924.2380936-.651.237z" fill="#fff"/></g></g></svg>